<svg xmlns="http://www.w3.org/2000/svg" width="24" height="24" viewBox="0 0 24 24" fill="none">
  <path d="M0 6C0 2.68629 2.68629 0 6 0H18C21.3137 0 24 2.68629 24 6V18C24 21.3137 21.3137 24 18 24H6C2.68629 24 0 21.3137 0 18V6Z" fill="#77E0FF"/>
  <path d="M6.54106 10.6507C6.30417 10.2657 5.83061 10.0457 5.34166 10.0457C4.33343 10.0457 3.6 10.863 3.6 11.9709C3.6 13.0788 4.36399 13.9039 5.31891 13.9039C5.83061 13.9039 6.30417 13.6368 6.54106 13.236V13.8096H7.42728V10.14H6.54106V10.6507ZM5.50204 13.0552C4.92141 13.0552 4.48599 12.5601 4.48599 11.9709C4.48599 11.3817 4.92141 10.8944 5.49423 10.8944C6.02132 10.8944 6.52567 11.3422 6.52567 11.9709C6.52567 12.5996 6.05211 13.0552 5.50204 13.0552Z" fill="white"/>
  <path d="M10.1089 12.6559L9.16157 10.1416H8.20664L9.69624 13.8109H10.5062L12.0109 10.1416H11.0484L10.1089 12.6559Z" fill="white"/>
  <path d="M14.3489 10.0457C13.3253 10.0457 12.4772 10.8001 12.4772 11.9709C12.4772 13.1417 13.2869 13.9039 14.3489 13.9039C14.9982 13.9039 15.6322 13.6052 15.9607 13.071L15.3647 12.6074C15.1586 12.9061 14.7841 13.0788 14.4022 13.0788C13.8675 13.0788 13.4854 12.8037 13.3862 12.293H16.1517C16.1592 12.1595 16.1668 12.0416 16.1668 11.9395C16.1668 10.7923 15.3647 10.0457 14.3489 10.0457ZM13.3862 11.6566C13.4932 11.0986 13.8827 10.8552 14.3565 10.8552C14.8303 10.8552 15.2349 11.1539 15.2884 11.6566H13.3862Z" fill="white"/>
  <path d="M19.4293 10.1416L18.5049 12.538L17.573 10.1416H16.641L18.0238 13.5989L17.8174 14.1333C17.6417 14.5655 17.4889 14.8326 17.0918 14.8326C16.9923 14.8326 16.8398 14.8326 16.687 14.7853V15.5789C16.939 15.6574 17.1148 15.6574 17.1605 15.6574C17.9169 15.6574 18.2683 15.3116 18.612 14.4788L20.3615 10.1416H19.4293Z" fill="white"/>
</svg>